# xmcd
#
# Track frame offsets:
#	150
#	18835
#	36080
#	53580
#	73035
#	88805
#	105400
#	124635
#	144828
#	168833
#	188818
#
# Disc length: 2784 seconds
#
# Revision: 3
# Processed by: cddbd v1.5.2PL0 Copyright (c) Steve Scherf et al.
# Submitted via: EasyCDDAExtractor 15.3.0.1
#
DISCID=830ade0b
DTITLE=Chayanne - Provocame
DYEAR=1992
DGENRE=Latin
TTITLE0=Provocame
TTITLE1=El Centro De Mi Corazon
TTITLE2=Isla Desnuda
TTITLE3=Mi Primer Amor
TTITLE4=Mimi
TTITLE5=El Arte De Amar
TTITLE6=Dime Lo Que Quieres Que Haga
TTITLE7=Todo El Mundo Necesita Un Beso
TTITLE8=No Puede Ser
TTITLE9=Socca Dance
TTITLE10=Exxtasis
EXTD=
EXTT0=
EXTT1=
EXTT2=
EXTT3=
EXTT4=
EXTT5=
EXTT6=
EXTT7=
EXTT8=
EXTT9=
EXTT10=
PLAYORDER=
